# Blender 4.2.3 LTS
# www.blender.org
mtllib rock1.mtl
o Icosphere
v -0.020967 0.356581 -0.022339
v -0.864850 0.130873 0.340234
v 0.000435 0.206845 0.899107
v 0.882571 0.220907 0.206658
v 0.516450 0.184361 -0.768317
v -0.539894 0.091910 -0.690264
v -0.467759 -0.131979 0.744746
v 0.568336 -0.114264 0.698498
v 0.837937 -0.160516 -0.304925
v -0.026022 -0.191957 -0.899355
v -0.874718 -0.206967 -0.199126
v 0.014770 -0.363222 0.007756
v 0.008216 0.335736 0.509206
v -0.512604 0.283182 0.172634
v -0.467768 0.207394 0.682170
v -0.838179 0.191196 -0.218475
v -0.351123 0.307134 -0.399959
v 0.472356 0.338248 0.128952
v 0.542432 0.235163 0.651698
v 0.290193 0.312445 -0.426275
v 0.779820 0.199928 -0.328026
v -0.011677 0.201637 -0.863959
v -0.990899 -0.059361 0.034659
v -0.843676 -0.041464 -0.557334
v -0.308868 0.012280 0.984691
v -0.780558 -0.021116 0.621139
v 0.831302 0.056886 0.547394
v 0.373000 0.027370 0.952870
v 0.788347 0.005569 -0.622281
v 0.977850 0.052529 -0.043509
v -0.347021 -0.047125 -0.939926
v 0.281155 -0.011901 -0.941026
v -0.803490 -0.190150 0.287096
v 0.012798 -0.179399 0.875616
v 0.828682 -0.132925 0.236914
v 0.479834 -0.203024 -0.722807
v -0.521634 -0.235291 -0.660134
v -0.252338 -0.300910 0.454404
v -0.493002 -0.329225 -0.117854
v 0.343603 -0.319118 0.418336
v 0.493391 -0.386533 -0.210151
v -0.006432 -0.331729 -0.518737
vn -0.1296 0.9905 0.0460
vn -0.3620 0.9285 0.0830
vn 0.0255 0.9990 0.0378
vn 0.0570 0.9963 -0.0650
vn -0.0131 0.9929 -0.1186
vn -0.8460 0.5330 0.0172
vn -0.2869 0.7293 0.6211
vn 0.5816 0.6953 0.4222
vn 0.6444 0.6465 -0.4083
vn -0.3533 0.6743 -0.6485
vn -0.9393 0.0908 0.3310
vn 0.0358 0.3542 0.9345
vn 0.9532 0.1902 0.2350
vn 0.5260 0.1113 -0.8431
vn -0.5225 0.5066 -0.6858
vn -0.2790 -0.9055 0.3198
vn 0.2415 -0.8654 0.4391
vn 0.5577 -0.8284 0.0517
vn 0.1009 -0.9322 -0.3475
vn -0.2724 -0.9504 -0.1502
vn -0.0525 -0.9970 -0.0575
vn -0.1384 -0.9770 -0.1619
vn -0.0821 -0.9369 -0.3398
vn -0.0742 -0.9956 -0.0566
vn 0.1059 -0.9353 -0.3376
vn 0.4604 -0.8318 -0.3099
vn 0.0001 -0.9943 0.1067
vn 0.4140 -0.8894 0.1941
vn 0.4333 -0.8570 0.2790
vn -0.0228 -0.9919 0.1248
vn -0.0121 -0.9587 0.2842
vn -0.1933 -0.9036 0.3823
vn -0.0877 -0.9924 0.0860
vn -0.2377 -0.9601 0.1475
vn -0.3194 -0.9443 0.0794
vn -0.5630 -0.7306 -0.3863
vn -0.5264 -0.5162 -0.6756
vn -0.2464 -0.7260 -0.6420
vn 0.2510 -0.6034 -0.7569
vn 0.5037 -0.3685 -0.7813
vn 0.5967 -0.6689 -0.4433
vn 0.8097 -0.5853 0.0436
vn 0.8968 -0.3808 0.2252
vn 0.6494 -0.6512 0.3926
vn 0.2842 -0.7282 0.6237
vn 0.0516 -0.4271 0.9027
vn -0.2411 -0.7530 0.6123
vn -0.4474 -0.7852 0.4281
vn -0.7920 -0.5211 0.3180
vn -0.6748 -0.7275 0.1240
vn 0.0120 -0.2449 -0.9695
vn -0.0194 0.3158 -0.9486
vn 0.1679 0.5301 -0.8311
vn 0.9234 -0.2615 -0.2811
vn 0.8109 0.4988 -0.3060
vn 0.7314 0.6613 -0.1665
vn 0.6305 -0.3629 0.6862
vn 0.5522 0.5079 0.6611
vn 0.2554 0.7226 0.6423
vn -0.4688 -0.5847 0.6620
vn -0.5314 0.5569 0.6383
vn -0.5685 0.6401 0.5169
vn -0.9097 -0.3414 -0.2365
vn -0.9155 0.3384 -0.2175
vn -0.5199 0.7081 -0.4777
vn -0.3158 0.8488 -0.4240
vn -0.0176 0.9721 -0.2339
vn 0.0853 0.9503 -0.2994
vn 0.2554 0.9487 -0.1863
vn 0.2460 0.9611 -0.1254
vn 0.2901 0.9525 -0.0931
vn 0.2442 0.9571 0.1560
vn 0.1372 0.9752 0.1739
vn 0.0941 0.9447 0.3142
vn -0.3506 0.8469 -0.3999
vn -0.2411 0.9701 -0.0274
vn -0.1478 0.9890 -0.0003
vn -0.1417 0.9407 0.3082
vn -0.2018 0.9660 0.1614
vn -0.3233 0.9314 0.1670
vt 0.250190 0.491012
vt 0.190699 0.535436
vt 0.209656 0.386903
vt 0.138951 0.568511
vt 0.180940 0.672714
vt 0.282403 0.383826
vt 0.308695 0.516275
vt 0.250071 0.615213
vt 0.123331 0.733737
vt 0.155820 0.308640
vt 0.150740 0.430527
vt 0.092410 0.345972
vt 0.316136 0.301603
vt 0.228431 0.276078
vt 0.309252 0.219842
vt 0.348552 0.531100
vt 0.344647 0.385345
vt 0.395928 0.463917
vt 0.251543 0.734062
vt 0.300628 0.636438
vt 0.293776 0.754891
vt 0.102249 0.497297
vt 0.172455 0.184563
vt 0.383272 0.291770
vt 0.359683 0.656206
vt 0.213011 0.769283
vt 0.835748 0.637935
vt 0.769839 0.689408
vt 0.790247 0.548786
vt 0.845056 0.361023
vt 0.847245 0.497835
vt 0.787894 0.419808
vt 0.704839 0.268984
vt 0.782032 0.284847
vt 0.715725 0.365671
vt 0.627005 0.459661
vt 0.648579 0.326627
vt 0.683799 0.474835
vt 0.706191 0.698469
vt 0.651531 0.587350
vt 0.723632 0.595225
vt 0.739339 0.469495
vt 0.625739 0.733082
vt 0.607540 0.558998
vt 0.591979 0.350364
vt 0.657617 0.208180
vt 0.776792 0.224748
vt 0.872711 0.277755
vt 0.901558 0.459287
vt 0.871046 0.615407
vt 0.828551 0.720214
vt 0.729994 0.770365
s 0
usemtl Material.003
f 1/1/1 14/2/1 13/3/1
f 2/4/2 14/2/2 16/5/2
f 1/1/3 13/3/3 18/6/3
f 1/1/4 18/6/4 20/7/4
f 1/1/5 20/7/5 17/8/5
f 2/4/6 16/5/6 23/9/6
f 3/10/7 15/11/7 25/12/7
f 4/13/8 19/14/8 27/15/8
f 5/16/9 21/17/9 29/18/9
f 6/19/10 22/20/10 31/21/10
f 2/4/11 23/9/11 26/22/11
f 3/10/12 25/12/12 28/23/12
f 4/13/13 27/15/13 30/24/13
f 5/16/14 29/18/14 32/25/14
f 6/19/15 31/21/15 24/26/15
f 7/27/16 33/28/16 38/29/16
f 8/30/17 34/31/17 40/32/17
f 9/33/18 35/34/18 41/35/18
f 10/36/19 36/37/19 42/38/19
f 11/39/20 37/40/20 39/41/20
f 39/41/21 42/38/21 12/42/21
f 39/41/22 37/40/22 42/38/22
f 37/40/23 10/36/23 42/38/23
f 42/38/24 41/35/24 12/42/24
f 42/38/25 36/37/25 41/35/25
f 36/37/26 9/33/26 41/35/26
f 41/35/27 40/32/27 12/42/27
f 41/35/28 35/34/28 40/32/28
f 35/34/29 8/30/29 40/32/29
f 40/32/30 38/29/30 12/42/30
f 40/32/31 34/31/31 38/29/31
f 34/31/32 7/27/32 38/29/32
f 38/29/33 39/41/33 12/42/33
f 38/29/34 33/28/34 39/41/34
f 33/28/35 11/39/35 39/41/35
f 24/43/36 37/40/36 11/39/36
f 24/43/37 31/44/37 37/40/37
f 31/44/38 10/36/38 37/40/38
f 32/45/39 36/37/39 10/36/39
f 32/45/40 29/46/40 36/37/40
f 29/46/41 9/33/41 36/37/41
f 30/47/42 35/34/42 9/33/42
f 30/47/43 27/48/43 35/34/43
f 27/48/44 8/30/44 35/34/44
f 28/49/45 34/31/45 8/30/45
f 28/49/46 25/50/46 34/31/46
f 25/50/47 7/27/47 34/31/47
f 26/51/48 33/28/48 7/27/48
f 26/51/49 23/52/49 33/28/49
f 23/52/50 11/39/50 33/28/50
f 31/44/51 32/45/51 10/36/51
f 31/21/52 22/20/52 32/25/52
f 22/20/53 5/16/53 32/25/53
f 29/46/54 30/47/54 9/33/54
f 29/18/55 21/17/55 30/24/55
f 21/17/56 4/13/56 30/24/56
f 27/48/57 28/49/57 8/30/57
f 27/15/58 19/14/58 28/23/58
f 19/14/59 3/10/59 28/23/59
f 25/50/60 26/51/60 7/27/60
f 25/12/61 15/11/61 26/22/61
f 15/11/62 2/4/62 26/22/62
f 23/52/63 24/43/63 11/39/63
f 23/9/64 16/5/64 24/26/64
f 16/5/65 6/19/65 24/26/65
f 17/8/66 22/20/66 6/19/66
f 17/8/67 20/7/67 22/20/67
f 20/7/68 5/16/68 22/20/68
f 20/7/69 21/17/69 5/16/69
f 20/7/70 18/6/70 21/17/70
f 18/6/71 4/13/71 21/17/71
f 18/6/72 19/14/72 4/13/72
f 18/6/73 13/3/73 19/14/73
f 13/3/74 3/10/74 19/14/74
f 16/5/75 17/8/75 6/19/75
f 16/5/76 14/2/76 17/8/76
f 14/2/77 1/1/77 17/8/77
f 13/3/78 15/11/78 3/10/78
f 13/3/79 14/2/79 15/11/79
f 14/2/80 2/4/80 15/11/80
