# Blender 4.2.3 LTS
# www.blender.org
mtllib untitled1.mtl
o Icosphere
v 0.016241 -0.142269 0.001208
v 0.699164 -0.050976 0.824690
v -0.271856 -0.032158 0.849222
v -0.894339 -0.033545 -0.000139
v -0.282574 -0.042030 -0.842381
v 0.687981 -0.008606 -0.539671
v -0.217777 0.249700 0.897323
v -0.873553 0.227275 0.084493
v -0.420105 0.258227 -0.779716
v 0.693189 0.253309 -0.607811
v 0.674382 0.129948 0.739491
v 0.006678 0.400885 0.118080
vn -0.0161 -0.9922 0.1234
vn 0.1702 -0.9849 -0.0320
vn -0.1182 -0.9891 0.0883
vn -0.1181 -0.9901 -0.0758
vn 0.0793 -0.9862 -0.1453
vn 0.9910 0.1339 -0.0040
vn 0.0215 -0.1722 0.9848
vn -0.8000 -0.1266 0.5865
vn -0.7863 -0.2415 -0.5687
vn 0.2963 -0.2460 -0.9229
vn 0.2134 0.4400 0.8723
vn -0.7782 0.0424 0.6266
vn -0.8680 0.2145 -0.4478
vn 0.1482 0.2666 -0.9523
vn 0.9998 -0.0166 0.0124
vn 0.1700 0.9571 0.2347
vn -0.1967 0.9716 0.1319
vn -0.1907 0.9795 -0.0650
vn 0.0308 0.9848 -0.1711
vn 0.3004 0.9494 0.0911
vt 0.706187 0.554235
vt 0.522933 0.062501
vt 0.777236 0.147171
vt 0.522933 0.908638
vt 0.906890 0.489088
vt 0.849755 1.000000
vt 0.279250 -0.000000
vt 0.468015 0.466106
vt 0.272021 0.103247
vt 0.800450 0.000000
vt 0.969590 0.415464
vt 0.956773 0.949202
vt 0.444485 0.966503
vt 0.411343 0.515519
vt 0.049606 0.226858
vt 0.340797 1.000000
vt 0.220174 0.516356
vt 0.049606 0.859615
s 0
usemtl Material.001
f 1/1/1 2/2/1 3/3/1
f 2/2/2 1/1/2 6/4/2
f 1/1/3 3/3/3 4/5/3
f 1/1/4 4/5/4 5/6/4
f 1/1/5 5/6/5 6/4/5
f 2/7/6 6/8/6 11/9/6
f 3/3/7 2/2/7 7/10/7
f 4/5/8 3/3/8 8/11/8
f 5/6/9 4/5/9 9/12/9
f 6/8/10 5/13/10 10/14/10
f 2/7/11 11/9/11 7/15/11
f 3/3/12 7/10/12 8/11/12
f 4/5/13 8/11/13 9/12/13
f 5/13/14 9/16/14 10/14/14
f 6/8/15 10/14/15 11/9/15
f 7/15/16 11/9/16 12/17/16
f 8/18/17 7/15/17 12/17/17
f 9/16/18 8/18/18 12/17/18
f 10/14/19 9/16/19 12/17/19
f 11/9/20 10/14/20 12/17/20
