# Blender 4.2.3 LTS
# www.blender.org
mtllib rock5.mtl
o Icosphere
v -0.115009 -0.157030 -0.022125
v -0.764120 0.316819 -0.063616
v -0.164914 0.106002 -0.789318
v 0.504500 -0.444352 -0.473504
v 0.341485 -0.588295 0.450524
v -0.424080 -0.074643 0.646221
v -0.062216 0.306278 -0.817923
v 0.695782 -0.324369 -0.463312
v 0.494638 -0.487017 0.561101
v -0.370704 0.063240 0.809061
v -0.718532 0.524801 -0.054244
v -0.001092 -0.017820 0.020517
vn -0.5633 -0.7922 -0.2350
vn -0.5744 -0.8014 -0.1668
vn -0.5467 -0.8024 -0.2395
vn -0.5385 -0.8129 -0.2216
vn -0.5786 -0.7979 -0.1692
vn -0.8513 0.1641 0.4983
vn -0.7037 0.2668 -0.6585
vn 0.2197 -0.2706 -0.9373
vn 0.5656 -0.8242 -0.0286
vn -0.2864 -0.6829 0.6721
vn -0.7178 0.1875 -0.6705
vn 0.2299 -0.2522 -0.9400
vn 0.5323 -0.8460 -0.0298
vn -0.1619 -0.6057 0.7790
vn -0.9355 -0.0509 0.3497
vn 0.5648 0.7828 0.2614
vn 0.5383 0.7985 0.2694
vn 0.5225 0.8203 0.2328
vn 0.5642 0.8054 0.1817
vn 0.5795 0.7924 0.1902
vt 0.271480 0.505395
vt 0.062475 0.749862
vt 0.138484 0.126079
vt 0.280529 0.958448
vt 0.395938 0.125144
vt 0.458463 0.666722
vt 0.062338 0.417159
vt 0.062503 0.666757
vt 0.000065 0.415627
vt 0.062696 0.208426
vt 0.000097 0.208235
vt 0.187518 0.125091
vt 0.039336 0.125438
vt 0.186561 0.000161
vt 0.458997 0.998815
vt 0.333003 0.999905
vt 0.458535 0.873812
vt 0.603970 0.999659
vt 0.604282 0.875334
vt 0.062696 0.360995
vt 0.000097 0.360803
vt 0.000446 0.029436
vt 0.333046 0.874788
vt 0.000069 0.666670
vt 0.853610 0.042467
vt 0.999522 0.584806
vt 0.728060 0.495567
vt 0.522166 0.041864
vt 0.499785 0.834825
vt 0.771526 1.000023
s 0
usemtl Material.001
f 1/1/1 2/2/1 3/3/1
f 2/2/2 1/1/2 6/4/2
f 1/1/3 3/3/3 4/5/3
f 1/1/4 4/5/4 5/6/4
f 1/1/5 5/6/5 6/4/5
f 2/7/6 6/8/6 11/9/6
f 3/10/7 2/7/7 7/11/7
f 4/12/8 3/13/8 8/14/8
f 5/15/9 4/16/9 9/17/9
f 6/18/10 5/15/10 10/19/10
f 2/7/11 11/9/11 7/11/11
f 3/20/12 7/21/12 8/22/12
f 4/16/13 8/23/13 9/17/13
f 5/15/14 9/17/14 10/19/14
f 6/8/15 10/24/15 11/9/15
f 7/25/16 11/26/16 12/27/16
f 8/28/17 7/25/17 12/27/17
f 9/29/18 8/28/18 12/27/18
f 10/30/19 9/29/19 12/27/19
f 11/26/20 10/30/20 12/27/20
