# Blender 4.2.3 LTS
# www.blender.org
mtllib rock7.mtl
o Icosphere
v -0.110145 -0.242290 0.041629
v 1.079579 -0.142785 -0.025004
v -0.086529 -0.115160 0.856193
v -0.783537 -0.161737 0.015619
v 0.364667 -0.141362 -0.749995
v 0.562036 -0.127549 -0.393307
v 0.178199 0.110120 0.562996
v -0.680859 0.054627 0.537850
v -0.593229 0.044555 -0.348893
v 0.144292 0.029228 -0.480592
v 0.485775 0.096922 0.070316
v -0.024406 0.200428 0.004181
vn 0.0908 -0.9844 0.1510
vn 0.0744 -0.9866 -0.1453
vn -0.1233 -0.9800 0.1565
vn -0.1094 -0.9757 -0.1900
vn 0.1426 -0.9890 -0.0406
vn 0.2941 0.8783 -0.3769
vn 0.5789 0.3043 0.7565
vn -0.4487 -0.7910 0.4159
vn -0.3869 -0.7012 -0.5988
vn 0.3853 0.8889 -0.2477
vn 0.3955 0.8910 0.2230
vn -0.0696 0.8204 0.5675
vn -0.8035 0.5891 -0.0861
vn -0.0873 0.8078 -0.5829
vn 0.3923 0.8516 -0.3478
vn 0.1868 0.9782 0.0904
vn -0.0687 0.9806 0.1834
vn -0.2438 0.9692 -0.0351
vn -0.0423 0.9374 -0.3457
vn 0.2239 0.9408 -0.2544
vt 0.209488 0.372491
vt 0.155552 0.952424
vt 0.017461 0.295707
vt 0.278940 0.750971
vt 0.257169 0.077708
vt 0.395626 0.750882
vt 0.421197 0.000127
vt 0.602342 0.056099
vt 0.540887 0.317164
vt 0.409950 0.746506
vt 0.468033 0.561599
vt 0.121587 0.007797
vt 0.386642 0.155198
vt 0.795120 0.000127
vt 0.719969 0.276564
vt 0.583621 0.950842
vt 0.750088 0.882791
vt 0.823378 0.530601
vt 0.613700 0.483268
s 0
usemtl Material.001
f 1/1/1 2/2/1 3/3/1
f 2/2/2 1/1/2 6/4/2
f 1/1/3 3/3/3 4/5/3
f 1/1/4 4/5/4 5/6/4
f 1/1/5 5/6/5 6/4/5
f 2/7/6 6/8/6 11/9/6
f 3/10/7 2/7/7 7/11/7
f 4/5/8 3/3/8 8/12/8
f 5/6/9 4/5/9 9/13/9
f 6/8/10 5/14/10 10/15/10
f 2/7/11 11/9/11 7/11/11
f 3/10/12 7/11/12 8/16/12
f 4/17/13 8/16/13 9/18/13
f 5/14/14 9/18/14 10/15/14
f 6/8/15 10/15/15 11/9/15
f 7/11/16 11/9/16 12/19/16
f 8/16/17 7/11/17 12/19/17
f 9/18/18 8/16/18 12/19/18
f 10/15/19 9/18/19 12/19/19
f 11/9/20 10/15/20 12/19/20
