# Blender 4.2.3 LTS
# www.blender.org
mtllib untitled.mtl
o Icosphere
v 0.263993 -0.271317 0.098635
v 0.678876 -0.090578 0.591133
v -0.031379 0.065929 0.734175
v -0.852365 0.294306 -0.118053
v -0.133376 -0.010976 -0.895973
v 0.745444 -0.221081 -0.318780
v 0.269139 0.455205 0.937431
v -0.514733 0.522390 0.703734
v -0.627087 0.344584 -0.916856
v 0.274676 0.224207 -0.927514
v 0.950412 -0.065061 0.205931
v 0.040524 0.460549 -0.059719
vn -0.1125 -0.8984 0.4245
vn 0.2343 -0.9597 0.1548
vn -0.4750 -0.8494 0.2300
vn -0.4423 -0.8950 -0.0576
vn -0.0885 -0.9717 -0.2190
vn 0.3111 -0.9373 0.1572
vn 0.0637 -0.5001 0.8636
vn -0.6319 -0.6400 0.4372
vn -0.5656 -0.7976 -0.2097
vn 0.3118 -0.6357 -0.7062
vn 0.7883 0.2296 0.5709
vn -0.2963 -0.2523 0.9212
vn -0.4400 0.8954 -0.0677
vn -0.0240 -0.0918 -0.9955
vn 0.8483 0.3156 -0.4252
vn 0.5219 0.8452 -0.1151
vn 0.0899 0.9958 -0.0153
vn -0.0358 0.9937 -0.1065
vn 0.1261 0.9653 -0.2288
vn 0.5181 0.8504 -0.0918
vt 0.688271 0.674677
vt 0.637284 0.988707
vt 0.439097 0.690300
vt 0.828510 0.735495
vt 0.617455 0.120981
vt 0.890151 0.414184
vt 0.796926 0.948188
vt 0.144320 0.032849
vt 0.351891 0.041859
vt 0.225416 0.197840
vt 0.041350 0.511890
vt 0.151385 0.294864
vt 0.910367 0.161290
vt 0.992930 0.536453
vt 0.472859 0.169580
vt 0.065153 0.931633
vt 0.248523 0.505355
vt 0.351009 0.939597
s 0
usemtl Material.001
f 1/1/1 2/2/1 3/3/1
f 2/2/2 1/1/2 6/4/2
f 1/1/3 3/3/3 4/5/3
f 1/1/4 4/5/4 5/6/4
f 1/1/5 5/6/5 6/4/5
f 2/2/6 6/4/6 11/7/6
f 3/8/7 2/9/7 7/10/7
f 4/11/8 3/8/8 8/12/8
f 5/6/9 4/5/9 9/13/9
f 6/4/10 5/6/10 10/14/10
f 2/9/11 11/15/11 7/10/11
f 3/8/12 7/10/12 8/12/12
f 4/11/13 8/12/13 9/16/13
f 5/6/14 9/13/14 10/14/14
f 6/4/15 10/14/15 11/7/15
f 7/10/16 11/15/16 12/17/16
f 8/12/17 7/10/17 12/17/17
f 9/16/18 8/12/18 12/17/18
f 10/18/19 9/16/19 12/17/19
f 11/15/20 10/18/20 12/17/20
