# Blender 4.2.3 LTS
# www.blender.org
mtllib rock6.mtl
o Icosphere
v -0.006097 -0.362642 -0.014928
v 0.407871 -0.446544 0.282743
v -0.163107 -0.450064 0.462824
v -0.299644 -0.459575 -0.001061
v -0.134402 -0.285855 -0.472996
v 0.401863 -0.319219 -0.286125
v 0.183392 -0.146500 0.270112
v -0.343155 -0.160839 0.288366
v -0.404036 -0.147741 -0.281386
v 0.164406 0.070895 -0.474567
v 0.511198 -0.214897 -0.005160
v 0.002308 -0.166785 0.055948
vn -0.0563 -0.9787 -0.1976
vn -0.0410 -0.9751 -0.2178
vn 0.3097 -0.9481 -0.0717
vn 0.2944 -0.9257 -0.2376
vn -0.0042 -0.9864 -0.1642
vn 0.8368 -0.5323 -0.1280
vn 0.2894 0.2553 0.9225
vn -0.8821 -0.3877 0.2676
vn -0.6398 -0.6211 -0.4526
vn 0.3035 -0.2583 -0.9172
vn 0.6186 0.4887 0.6152
vn 0.0153 0.5234 0.8519
vn -0.9669 -0.2357 0.0979
vn -0.4187 0.3470 -0.8392
vn 0.8454 0.3016 -0.4409
vn 0.0744 0.9849 -0.1562
vn -0.0296 0.9971 -0.0694
vn 0.0305 0.9993 0.0197
vn -0.2364 0.9116 0.3362
vn 0.1367 0.8878 0.4395
vt 0.167387 0.459734
vt 0.266529 0.917617
vt 0.006024 0.713779
vt 0.361792 0.516957
vt 0.006024 0.216287
vt 0.239203 0.074570
vt 0.409240 0.606174
vt 0.414940 0.203274
vt 0.529786 0.394487
vt 0.481911 0.968729
vt 0.581603 0.656798
vt 0.343117 0.225438
vt 0.419575 -0.016845
vt 0.477951 0.184884
vt 0.368975 0.638832
vt 0.370274 0.293678
vt 0.464276 0.503544
vt 0.271931 0.954939
vt 0.431767 0.915066
vt 0.606739 0.963391
vt 0.369031 0.320238
vt 0.456172 0.110497
vt 0.485182 0.479689
vt 0.518559 0.057690
vt 0.675421 0.176983
vt 0.892386 0.111813
vt 0.799969 0.451818
vt 0.638940 0.642620
vt 0.834463 0.829326
vt 0.994934 0.504911
s 0
usemtl Material.001
f 1/1/1 2/2/1 3/3/1
f 2/2/2 1/1/2 6/4/2
f 1/1/3 3/3/3 4/5/3
f 1/1/4 4/5/4 5/6/4
f 1/1/5 5/6/5 6/4/5
f 2/7/6 6/8/6 11/9/6
f 3/10/7 2/7/7 7/11/7
f 4/12/8 3/13/8 8/14/8
f 5/15/9 4/16/9 9/17/9
f 6/18/10 5/15/10 10/19/10
f 2/7/11 11/9/11 7/11/11
f 3/10/12 7/11/12 8/20/12
f 4/21/13 8/22/13 9/23/13
f 5/15/14 9/17/14 10/19/14
f 6/8/15 10/24/15 11/9/15
f 7/25/16 11/26/16 12/27/16
f 8/28/17 7/25/17 12/27/17
f 9/29/18 8/28/18 12/27/18
f 10/30/19 9/29/19 12/27/19
f 11/26/20 10/30/20 12/27/20
