# Blender 4.2.2 LTS
# www.blender.org
mtllib idealflatstone.mtl
o Icosphere
v -0.000000 -0.021658 0.000000
v 0.244753 -0.019341 0.177821
v -0.093485 -0.019341 0.287724
v -0.302534 -0.019341 0.000000
v -0.093485 -0.019341 -0.287724
v 0.244753 -0.019341 -0.177821
v 0.244222 0.019341 0.178550
v -0.094343 0.019341 0.287444
v -0.302529 0.019341 -0.000897
v -0.092633 0.019341 -0.287999
v 0.245282 0.019341 -0.177097
v -0.000000 0.021658 0.000000
vn 0.0029 -1.0000 0.0090
vn 0.0095 -1.0000 -0.0000
vn -0.0077 -1.0000 0.0056
vn -0.0077 -1.0000 -0.0056
vn 0.0029 -1.0000 -0.0090
vn 0.9999 -0.0137 -0.0000
vn 0.3090 -0.0137 0.9510
vn -0.8089 -0.0137 0.5877
vn -0.8089 -0.0135 -0.5877
vn 0.3090 -0.0136 -0.9510
vn 0.9999 0.0137 0.0030
vn 0.3062 0.0137 0.9519
vn -0.8107 0.0137 0.5853
vn -0.8072 0.0136 -0.5901
vn 0.3118 0.0135 -0.9501
vn 0.0095 1.0000 -0.0000
vn 0.0029 1.0000 0.0090
vn -0.0077 1.0000 0.0055
vn -0.0076 1.0000 -0.0056
vn 0.0030 1.0000 -0.0090
vt 0.181989 0.311447
vt 0.001073 0.429023
vt 0.070172 0.003657
vt 0.181991 0.691903
vt 0.293801 0.003644
vt 0.362907 0.429009
vt 0.916575 0.999862
vt 0.916660 0.000092
vt 1.000088 0.000453
vt 0.583282 1.000040
vt 0.582942 -0.002798
vt 0.667055 -0.000720
vt 0.833408 1.000218
vt 0.834598 0.000092
vt 0.916660 0.000470
vt 0.666545 0.999708
vt 0.667055 -0.002798
vt 0.750199 -0.000726
vt 0.749890 0.999700
vt 0.750199 -0.001080
vt 0.834598 0.000455
vt 1.000088 1.000069
vt 0.666545 1.000078
vt 0.916575 0.999900
vt 0.749890 0.999732
vt 0.833408 1.000242
vt 0.301203 0.994417
vt 0.240684 0.600231
vt 0.415188 0.712718
vt 0.513096 0.999106
vt 0.580804 0.597515
vt 0.410759 0.344623
s 0
usemtl Material.001
f 1/1/1 2/2/1 3/3/1
f 2/2/2 1/1/2 6/4/2
f 1/1/3 3/3/3 4/5/3
f 1/1/4 4/5/4 5/6/4
f 1/1/5 5/6/5 6/4/5
f 2/7/6 6/8/6 11/9/6
f 3/10/7 2/11/7 7/12/7
f 4/13/8 3/14/8 8/15/8
f 5/16/9 4/17/9 9/18/9
f 6/19/10 5/20/10 10/21/10
f 2/7/11 11/9/11 7/22/11
f 3/10/12 7/12/12 8/23/12
f 4/13/13 8/15/13 9/24/13
f 5/16/14 9/18/14 10/25/14
f 6/19/15 10/21/15 11/26/15
f 7/27/16 11/28/16 12/29/16
f 8/30/17 7/27/17 12/29/17
f 9/31/18 8/30/18 12/29/18
f 10/32/19 9/31/19 12/29/19
f 11/28/20 10/32/20 12/29/20
