# Blender 4.2.3 LTS
# www.blender.org
mtllib rock4.mtl
o Icosphere
v 0.132481 -0.110402 0.012587
v -0.257147 -0.672407 -0.591829
v 0.392127 0.104679 -0.829936
v 0.706304 0.593217 0.096539
v 0.248703 0.085601 0.887637
v -0.352651 -0.666675 0.472031
v -0.199640 -0.028441 -0.651592
v 0.217690 0.553049 -0.358515
v 0.129086 0.540590 0.411395
v -0.336200 -0.055200 0.605239
v -0.559595 -0.404235 -0.084243
v -0.334296 0.260514 -0.022958
vn 0.7769 -0.6246 0.0800
vn 0.7809 -0.6204 0.0734
vn 0.7684 -0.6356 0.0746
vn 0.7720 -0.6343 0.0395
vn 0.7694 -0.6375 0.0406
vn -0.7173 -0.6942 -0.0606
vn -0.2746 -0.0645 -0.9594
vn 0.4347 0.7274 -0.5310
vn 0.2756 0.7287 0.6270
vn -0.3906 -0.1859 0.9016
vn -0.8522 0.0276 -0.5224
vn -0.3513 0.6101 -0.7102
vn -0.0875 0.9961 0.0060
vn -0.4632 0.5798 0.6703
vn -0.9432 -0.0463 0.3290
vn -0.8806 0.3298 -0.3402
vn -0.6136 0.6593 -0.4345
vn -0.4877 0.8720 -0.0420
vn -0.6923 0.6456 0.3223
vn -0.9404 0.3049 0.1504
vt 0.720160 0.485106
vt 0.771945 0.962145
vt 0.530769 0.734669
vt 0.942884 0.553104
vt 0.530107 0.197781
vt 0.834431 0.079998
vt 0.002682 0.550154
vt 0.135887 0.028274
vt 0.117658 0.314979
vt 0.202288 0.977989
vt 0.139995 0.674460
vt 0.450881 0.729108
vt 0.315183 0.749610
vt 0.420490 0.107347
vt 0.382622 0.416977
vt 0.278102 0.220378
vt 0.248333 0.474083
s 0
usemtl Material.001
f 1/1/1 2/2/1 3/3/1
f 2/2/2 1/1/2 6/4/2
f 1/1/3 3/3/3 4/5/3
f 1/1/4 4/5/4 5/6/4
f 1/1/5 5/6/5 6/4/5
f 2/7/6 6/8/6 11/9/6
f 3/10/7 2/7/7 7/11/7
f 4/12/8 3/10/8 8/13/8
f 5/14/9 4/12/9 9/15/9
f 6/8/10 5/14/10 10/16/10
f 2/7/11 11/9/11 7/11/11
f 3/10/12 7/11/12 8/13/12
f 4/12/13 8/13/13 9/15/13
f 5/14/14 9/15/14 10/16/14
f 6/8/15 10/16/15 11/9/15
f 7/11/16 11/9/16 12/17/16
f 8/13/17 7/11/17 12/17/17
f 9/15/18 8/13/18 12/17/18
f 10/16/19 9/15/19 12/17/19
f 11/9/20 10/16/20 12/17/20
